<mxfile host="app.diagrams.net" modified="2024-06-25T08:45:23.269Z" agent="Mozilla/5.0 (Windows NT 10.0; Win64; x64) AppleWebKit/537.36 (KHTML, like Gecko) Chrome/126.0.0.0 Safari/537.36" etag="dt9r4jvXBEy262zCZ8FA" version="24.6.2" type="github">
  <diagram id="C5RBs43oDa-KdzZeNtuy" name="Page-1">
    <mxGraphModel dx="1674" dy="738" grid="1" gridSize="10" guides="1" tooltips="1" connect="1" arrows="1" fold="1" page="1" pageScale="1" pageWidth="827" pageHeight="1169" math="0" shadow="0">
      <root>
        <mxCell id="WIyWlLk6GJQsqaUBKTNV-0" />
        <mxCell id="WIyWlLk6GJQsqaUBKTNV-1" parent="WIyWlLk6GJQsqaUBKTNV-0" />
        <mxCell id="ZG3sY6NKLNy8PnIxwrU4-0" value="" style="edgeStyle=orthogonalEdgeStyle;rounded=0;orthogonalLoop=1;jettySize=auto;html=1;" edge="1" parent="WIyWlLk6GJQsqaUBKTNV-1" source="ZG3sY6NKLNy8PnIxwrU4-1" target="ZG3sY6NKLNy8PnIxwrU4-2">
          <mxGeometry relative="1" as="geometry" />
        </mxCell>
        <mxCell id="ZG3sY6NKLNy8PnIxwrU4-1" value="用户发起数据库部署规划请求" style="rounded=1;whiteSpace=wrap;html=1;" vertex="1" parent="WIyWlLk6GJQsqaUBKTNV-1">
          <mxGeometry x="100" y="20" width="160" height="60" as="geometry" />
        </mxCell>
        <mxCell id="ZG3sY6NKLNy8PnIxwrU4-6" value="" style="edgeStyle=orthogonalEdgeStyle;rounded=0;orthogonalLoop=1;jettySize=auto;html=1;" edge="1" parent="WIyWlLk6GJQsqaUBKTNV-1" source="ZG3sY6NKLNy8PnIxwrU4-2" target="ZG3sY6NKLNy8PnIxwrU4-5">
          <mxGeometry relative="1" as="geometry" />
        </mxCell>
        <mxCell id="ZG3sY6NKLNy8PnIxwrU4-2" value="判断集群将用于测试环境" style="rounded=0;whiteSpace=wrap;html=1;" vertex="1" parent="WIyWlLk6GJQsqaUBKTNV-1">
          <mxGeometry x="120" y="110" width="120" height="60" as="geometry" />
        </mxCell>
        <mxCell id="ZG3sY6NKLNy8PnIxwrU4-8" value="" style="edgeStyle=orthogonalEdgeStyle;rounded=0;orthogonalLoop=1;jettySize=auto;html=1;" edge="1" parent="WIyWlLk6GJQsqaUBKTNV-1" source="ZG3sY6NKLNy8PnIxwrU4-5" target="ZG3sY6NKLNy8PnIxwrU4-7">
          <mxGeometry relative="1" as="geometry" />
        </mxCell>
        <mxCell id="ZG3sY6NKLNy8PnIxwrU4-5" value="询问用户是否有业务负载要求。若有需提供业务指标：数据容量，总连接数...." style="whiteSpace=wrap;html=1;rounded=0;" vertex="1" parent="WIyWlLk6GJQsqaUBKTNV-1">
          <mxGeometry x="120" y="200" width="120" height="60" as="geometry" />
        </mxCell>
        <mxCell id="ZG3sY6NKLNy8PnIxwrU4-100" style="edgeStyle=orthogonalEdgeStyle;rounded=0;orthogonalLoop=1;jettySize=auto;html=1;exitX=0.5;exitY=1;exitDx=0;exitDy=0;" edge="1" parent="WIyWlLk6GJQsqaUBKTNV-1" source="ZG3sY6NKLNy8PnIxwrU4-7">
          <mxGeometry relative="1" as="geometry">
            <mxPoint x="180" y="470" as="targetPoint" />
          </mxGeometry>
        </mxCell>
        <mxCell id="ZG3sY6NKLNy8PnIxwrU4-101" value="是" style="edgeLabel;html=1;align=center;verticalAlign=middle;resizable=0;points=[];" vertex="1" connectable="0" parent="ZG3sY6NKLNy8PnIxwrU4-100">
          <mxGeometry x="-0.3857" y="-1" relative="1" as="geometry">
            <mxPoint as="offset" />
          </mxGeometry>
        </mxCell>
        <mxCell id="ZG3sY6NKLNy8PnIxwrU4-104" value="" style="edgeStyle=orthogonalEdgeStyle;rounded=0;orthogonalLoop=1;jettySize=auto;html=1;" edge="1" parent="WIyWlLk6GJQsqaUBKTNV-1" source="ZG3sY6NKLNy8PnIxwrU4-7" target="ZG3sY6NKLNy8PnIxwrU4-103">
          <mxGeometry relative="1" as="geometry" />
        </mxCell>
        <mxCell id="ZG3sY6NKLNy8PnIxwrU4-105" value="无" style="edgeLabel;html=1;align=center;verticalAlign=middle;resizable=0;points=[];" vertex="1" connectable="0" parent="ZG3sY6NKLNy8PnIxwrU4-104">
          <mxGeometry x="0.1333" relative="1" as="geometry">
            <mxPoint as="offset" />
          </mxGeometry>
        </mxCell>
        <mxCell id="ZG3sY6NKLNy8PnIxwrU4-7" value="是否有业务负载要求" style="rhombus;whiteSpace=wrap;html=1;rounded=0;" vertex="1" parent="WIyWlLk6GJQsqaUBKTNV-1">
          <mxGeometry x="140" y="310" width="80" height="80" as="geometry" />
        </mxCell>
        <mxCell id="ZG3sY6NKLNy8PnIxwrU4-107" value="" style="edgeStyle=orthogonalEdgeStyle;rounded=0;orthogonalLoop=1;jettySize=auto;html=1;" edge="1" parent="WIyWlLk6GJQsqaUBKTNV-1" source="ZG3sY6NKLNy8PnIxwrU4-102" target="ZG3sY6NKLNy8PnIxwrU4-106">
          <mxGeometry relative="1" as="geometry" />
        </mxCell>
        <mxCell id="ZG3sY6NKLNy8PnIxwrU4-102" value="与生产环境流程相同" style="whiteSpace=wrap;html=1;rounded=0;" vertex="1" parent="WIyWlLk6GJQsqaUBKTNV-1">
          <mxGeometry x="120" y="470" width="120" height="60" as="geometry" />
        </mxCell>
        <mxCell id="ZG3sY6NKLNy8PnIxwrU4-108" style="edgeStyle=orthogonalEdgeStyle;rounded=0;orthogonalLoop=1;jettySize=auto;html=1;entryX=0.5;entryY=0;entryDx=0;entryDy=0;" edge="1" parent="WIyWlLk6GJQsqaUBKTNV-1" source="ZG3sY6NKLNy8PnIxwrU4-103" target="ZG3sY6NKLNy8PnIxwrU4-106">
          <mxGeometry relative="1" as="geometry" />
        </mxCell>
        <mxCell id="ZG3sY6NKLNy8PnIxwrU4-103" value="与开发环境流程相同" style="whiteSpace=wrap;html=1;rounded=0;" vertex="1" parent="WIyWlLk6GJQsqaUBKTNV-1">
          <mxGeometry x="294" y="320" width="120" height="60" as="geometry" />
        </mxCell>
        <mxCell id="ZG3sY6NKLNy8PnIxwrU4-106" value="结束" style="ellipse;whiteSpace=wrap;html=1;rounded=0;" vertex="1" parent="WIyWlLk6GJQsqaUBKTNV-1">
          <mxGeometry x="340" y="460" width="80" height="80" as="geometry" />
        </mxCell>
        <mxCell id="ZG3sY6NKLNy8PnIxwrU4-109" value="&lt;span style=&quot;text-wrap: nowrap;&quot;&gt;圆角矩形表示用户行为&lt;/span&gt;&lt;div style=&quot;text-wrap: nowrap;&quot;&gt;直角矩形表示TDBA行为&lt;/div&gt;" style="shape=document;whiteSpace=wrap;html=1;boundedLbl=1;" vertex="1" parent="WIyWlLk6GJQsqaUBKTNV-1">
          <mxGeometry x="410" y="30" width="180" height="130" as="geometry" />
        </mxCell>
        <mxCell id="ZG3sY6NKLNy8PnIxwrU4-110" value="&lt;span style=&quot;text-wrap: nowrap;&quot;&gt;测试环境流程&lt;/span&gt;" style="shape=document;whiteSpace=wrap;html=1;boundedLbl=1;" vertex="1" parent="WIyWlLk6GJQsqaUBKTNV-1">
          <mxGeometry x="410" y="180" width="180" height="130" as="geometry" />
        </mxCell>
      </root>
    </mxGraphModel>
  </diagram>
</mxfile>
